# xmcd CD database file generated by LOLA_Freedb v0.9beta0
# 
# Track frame offsets:
#      150
#      14713
#      26074
#      42280
#      56251
#      73827
#      98038
#      115936
#      130571
#      146438
#      164965
#      182753
# 
# Disc length: 2707 seconds
# 
# Revision: 0 
# Processed by: cddbd v1.5.2PL0 Copyright (c) Steve Scherf et al.
# Submitted via: LOLA_Freedb v0.9beta0
# 
DISCID=aa0a910c
DTITLE=Don Jensen - Drunk Again
DYEAR=2008
DGENRE=
TTITLE0=Don Jensen - Sauerkraut Cowboy
TTITLE1=Don Jensen - Hush Now Baby
TTITLE2=Don Jensen - Pullman City Travel Tune
TTITLE3=Don Jensen - A Brick And A Bottle Of Beer
TTITLE4=Don Jensen - Just Take Me Home
TTITLE5=Don Jensen - I Don't Know Why
TTITLE6=Don Jensen - The Taxi
TTITLE7=Don Jensen - The Farmers Daughter
TTITLE8=Don Jensen - Love The Love
TTITLE9=Don Jensen - Coming Home
TTITLE10=Don Jensen - Flowers For My Love
TTITLE11=Don Jensen - Six-Beer-Nite
EXTD=
EXTT0=
EXTT1=
EXTT2=
EXTT3=
EXTT4=
EXTT5=
EXTT6=
EXTT7=
EXTT8=
EXTT9=
EXTT10=
EXTT11=
PLAYORDER=
